<svg version="1.1" xmlns="http://www.w3.org/2000/svg" x="0px" y="0px"
	 viewBox="0 0 17.358 17.358" style="enable-background:new 0 0 17.358 17.358;"
	 width="18px" height="14px">
<g>
	<path style="fill:#FFFFFF;" d="M16.826,7.733h-2.089L10.175,3.17c0.007-0.065,0.02-0.13,0.02-0.196
		c0-0.853-0.693-1.545-1.547-1.545c-0.853,0-1.545,0.692-1.545,1.545c0,0.088,0.012,0.17,0.024,0.253L2.622,7.733H0.533
		C0.239,7.733,0,7.971,0,8.266v0.735c0,0.294,0.239,0.533,0.533,0.533h0.409l1.131,5.94c0,0.252,0.204,0.455,0.455,0.455h12.301
		c0.252,0,0.456-0.204,0.456-0.455l1.131-5.94h0.408c0.295,0,0.534-0.238,0.534-0.533V8.267C17.361,7.97,17.122,7.733,16.826,7.733z
		 M7.98,4.361c0.204,0.098,0.427,0.157,0.667,0.157c0.258,0,0.496-0.069,0.709-0.18l3.394,3.395H4.609
		C4.609,7.733,7.98,4.361,7.98,4.361z M4.486,14.984H4.203c-0.306,0-0.596-0.178-0.645-0.401l-0.821-3.67
		c-0.068-0.298,0.172-0.545,0.536-0.545h0.335c0.364,0,0.7,0.247,0.751,0.545l0.614,3.67C5.012,14.805,4.793,14.984,4.486,14.984z
		 M7.426,14.984H7.143c-0.306,0-0.574-0.178-0.598-0.401l-0.387-3.67c-0.031-0.298,0.238-0.545,0.601-0.545h0.335
		c0.365,0,0.673,0.247,0.686,0.545l0.18,3.67C7.974,14.805,7.733,14.984,7.426,14.984z M10.951,14.583
		c-0.016,0.223-0.277,0.401-0.585,0.401h-0.283c-0.306,0-0.554-0.178-0.55-0.401l0.047-3.67c0.004-0.298,0.303-0.545,0.668-0.545
		h0.334c0.366,0,0.643,0.247,0.622,0.545L10.951,14.583z M13.939,14.583c-0.043,0.223-0.326,0.401-0.633,0.401h-0.283
		c-0.306,0-0.532-0.178-0.503-0.401l0.483-3.67c0.039-0.298,0.368-0.545,0.732-0.545h0.334c0.366,0,0.614,0.247,0.559,0.545
		C14.628,10.913,13.939,14.583,13.939,14.583z"/>
</g>
</svg>
