<?xml version="1.0" encoding="UTF-8"?>
<svg xmlns="http://www.w3.org/2000/svg" xmlns:xlink="http://www.w3.org/1999/xlink" width="17px" height="14px" viewBox="0 0 17 14" version="1.1">
<g id="surface1">
<path style=" stroke:none;fill-rule:nonzero;fill:rgb(0%,0%,0%);fill-opacity:1;" d="M 4.78125 5.6875 C 4.195312 5.6875 3.71875 6.078125 3.71875 6.5625 C 3.71875 7.046875 4.195312 7.4375 4.78125 7.4375 C 5.367188 7.4375 5.84375 7.046875 5.84375 6.5625 C 5.84375 6.078125 5.367188 5.6875 4.78125 5.6875 Z M 8.5 5.6875 C 7.914062 5.6875 7.4375 6.078125 7.4375 6.5625 C 7.4375 7.046875 7.914062 7.4375 8.5 7.4375 C 9.085938 7.4375 9.5625 7.046875 9.5625 6.5625 C 9.5625 6.078125 9.085938 5.6875 8.5 5.6875 Z M 12.21875 5.6875 C 11.632812 5.6875 11.15625 6.078125 11.15625 6.5625 C 11.15625 7.046875 11.632812 7.4375 12.21875 7.4375 C 12.804688 7.4375 13.28125 7.046875 13.28125 6.5625 C 13.28125 6.078125 12.804688 5.6875 12.21875 5.6875 Z M 8.5 0.875 C 3.804688 0.875 0 3.421875 0 6.5625 C 0 7.863281 0.660156 9.054688 1.757812 10.015625 C 1.261719 11.09375 0.234375 12.007812 0.214844 12.015625 C -0.00390625 12.210938 -0.0625 12.488281 0.0625 12.726562 C 0.1875 12.96875 0.476562 13.125 0.796875 13.125 C 2.839844 13.125 4.449219 12.421875 5.414062 11.859375 C 6.375 12.109375 7.410156 12.25 8.5 12.25 C 13.195312 12.25 17 9.703125 17 6.5625 C 17 3.421875 13.195312 0.875 8.5 0.875 Z M 8.5 10.9375 C 7.613281 10.9375 6.738281 10.824219 5.898438 10.605469 L 5.144531 10.410156 L 4.496094 10.789062 C 4.019531 11.0625 3.371094 11.371094 2.585938 11.578125 C 2.828125 11.25 3.066406 10.878906 3.246094 10.480469 L 3.597656 9.710938 L 2.914062 9.117188 C 2.3125 8.589844 1.59375 7.714844 1.59375 6.5625 C 1.59375 4.152344 4.691406 2.1875 8.5 2.1875 C 12.308594 2.1875 15.40625 4.152344 15.40625 6.5625 C 15.40625 8.972656 12.308594 10.9375 8.5 10.9375 Z M 8.5 10.9375 "/>
</g>
</svg>
