<svg width="50" viewBox="0 0 401 201" fill="none" xmlns="http://www.w3.org/2000/svg">
<path d="M250.759 167.2L268.645 55.9781L330.693 113.033L250.759 167.2Z" fill="white"/>
<rect width="401" height="113" rx="56.5" fill="white"/>
<path d="M108.375 89H99.3281V57.4531H64.9219V89H55.9219V20.75H64.9219V50.0938H99.3281V20.75H108.375V89ZM120.703 63.1719C120.703 58.2031 121.672 53.7344 123.609 49.7656C125.578 45.7969 128.297 42.7344 131.766 40.5781C135.266 38.4219 139.25 37.3438 143.719 37.3438C150.625 37.3438 156.203 39.7344 160.453 44.5156C164.734 49.2969 166.875 55.6562 166.875 63.5938V64.2031C166.875 69.1406 165.922 73.5781 164.016 77.5156C162.141 81.4219 159.438 84.4688 155.906 86.6562C152.406 88.8438 148.375 89.9375 143.812 89.9375C136.938 89.9375 131.359 87.5469 127.078 82.7656C122.828 77.9844 120.703 71.6562 120.703 63.7812V63.1719ZM129.422 64.2031C129.422 69.8281 130.719 74.3438 133.312 77.75C135.938 81.1562 139.438 82.8594 143.812 82.8594C148.219 82.8594 151.719 81.1406 154.312 77.7031C156.906 74.2344 158.203 69.3906 158.203 63.1719C158.203 57.6094 156.875 53.1094 154.219 49.6719C151.594 46.2031 148.094 44.4688 143.719 44.4688C139.438 44.4688 135.984 46.1719 133.359 49.5781C130.734 52.9844 129.422 57.8594 129.422 64.2031ZM178.547 89V38.2812H198.328C205.078 38.2812 210.25 39.4688 213.844 41.8438C217.469 44.1875 219.281 47.6406 219.281 52.2031C219.281 54.5469 218.578 56.6719 217.172 58.5781C215.766 60.4531 213.688 61.8906 210.938 62.8906C214 63.6094 216.453 65.0156 218.297 67.1094C220.172 69.2031 221.109 71.7031 221.109 74.6094C221.109 79.2656 219.391 82.8281 215.953 85.2969C212.547 87.7656 207.719 89 201.469 89H178.547ZM187.219 66.7344V82.0156H201.562C205.188 82.0156 207.891 81.3438 209.672 80C211.484 78.6562 212.391 76.7656 212.391 74.3281C212.391 69.2656 208.672 66.7344 201.234 66.7344H187.219ZM187.219 59.7969H198.422C206.547 59.7969 210.609 57.4219 210.609 52.6719C210.609 47.9219 206.766 45.4688 199.078 45.3125H187.219V59.7969ZM230.297 63.1719C230.297 58.2031 231.266 53.7344 233.203 49.7656C235.172 45.7969 237.891 42.7344 241.359 40.5781C244.859 38.4219 248.844 37.3438 253.312 37.3438C260.219 37.3438 265.797 39.7344 270.047 44.5156C274.328 49.2969 276.469 55.6562 276.469 63.5938V64.2031C276.469 69.1406 275.516 73.5781 273.609 77.5156C271.734 81.4219 269.031 84.4688 265.5 86.6562C262 88.8438 257.969 89.9375 253.406 89.9375C246.531 89.9375 240.953 87.5469 236.672 82.7656C232.422 77.9844 230.297 71.6562 230.297 63.7812V63.1719ZM239.016 64.2031C239.016 69.8281 240.312 74.3438 242.906 77.75C245.531 81.1562 249.031 82.8594 253.406 82.8594C257.812 82.8594 261.312 81.1406 263.906 77.7031C266.5 74.2344 267.797 69.3906 267.797 63.1719C267.797 57.6094 266.469 53.1094 263.812 49.6719C261.188 46.2031 257.688 44.4688 253.312 44.4688C249.031 44.4688 245.578 46.1719 242.953 49.5781C240.328 52.9844 239.016 57.8594 239.016 64.2031ZM308.391 89.9375C301.516 89.9375 295.922 87.6875 291.609 83.1875C287.297 78.6562 285.141 72.6094 285.141 65.0469V63.4531C285.141 58.4219 286.094 53.9375 288 50C289.938 46.0312 292.625 42.9375 296.062 40.7188C299.531 38.4688 303.281 37.3438 307.312 37.3438C313.906 37.3438 319.031 39.5156 322.688 43.8594C326.344 48.2031 328.172 54.4219 328.172 62.5156V66.125H293.812C293.938 71.125 295.391 75.1719 298.172 78.2656C300.984 81.3281 304.547 82.8594 308.859 82.8594C311.922 82.8594 314.516 82.2344 316.641 80.9844C318.766 79.7344 320.625 78.0781 322.219 76.0156L327.516 80.1406C323.266 86.6719 316.891 89.9375 308.391 89.9375ZM307.312 44.4688C303.812 44.4688 300.875 45.75 298.5 48.3125C296.125 50.8438 294.656 54.4062 294.094 59H319.5V58.3438C319.25 53.9375 318.062 50.5312 315.938 48.125C313.812 45.6875 310.938 44.4688 307.312 44.4688Z" fill="black"/>
</svg>
