<?xml version="1.0" encoding="UTF-8"?>
<svg xmlns="http://www.w3.org/2000/svg" xmlns:xlink="http://www.w3.org/1999/xlink" width="14px" height="14px" viewBox="0 0 14 14" version="1.1">
<g id="surface1">
<path style=" stroke:none;fill-rule:nonzero;fill: #f33737;fill-opacity:1;" d="M 0 1.53125 L 0 8.09375 C 0 8.457031 0.292969 8.75 0.65625 8.75 L 2.84375 8.75 C 3.207031 8.75 3.5 8.457031 3.5 8.09375 L 3.5 1.53125 C 3.5 1.167969 3.207031 0.875 2.84375 0.875 L 0.65625 0.875 C 0.292969 0.875 0 1.167969 0 1.53125 Z M 1.09375 7 C 1.09375 6.636719 1.386719 6.34375 1.75 6.34375 C 2.113281 6.34375 2.40625 6.636719 2.40625 7 C 2.40625 7.363281 2.113281 7.65625 1.75 7.65625 C 1.386719 7.65625 1.09375 7.363281 1.09375 7 Z M 8.53125 14 C 7.980469 14 7.726562 12.925781 7.601562 12.417969 C 7.460938 11.828125 7.3125 11.214844 6.910156 10.808594 C 6.019531 9.917969 5.554688 8.785156 4.472656 7.714844 C 4.410156 7.65625 4.375 7.570312 4.375 7.484375 L 4.375 1.636719 C 4.375 1.460938 4.519531 1.3125 4.695312 1.308594 C 5.128906 1.300781 5.699219 1.0625 6.136719 0.867188 C 7.003906 0.480469 8.085938 0 9.40625 0 L 9.484375 0 C 10.652344 0 12.035156 0.0117188 12.59375 0.8125 C 12.824219 1.144531 12.878906 1.550781 12.761719 2.035156 C 13.210938 2.5 13.449219 3.371094 13.210938 4.078125 C 13.691406 4.71875 13.734375 5.613281 13.464844 6.25 L 13.46875 6.253906 C 13.792969 6.582031 14.003906 7.109375 14 7.597656 C 13.996094 8.429688 13.285156 9.1875 12.371094 9.1875 L 9.589844 9.1875 C 9.789062 9.960938 10.5 10.613281 10.5 11.773438 C 10.5 13.78125 9.1875 14 8.53125 14 Z M 8.53125 14 "/>
</g>
</svg>
