<?xml version="1.0" encoding="UTF-8"?>
<svg xmlns="http://www.w3.org/2000/svg" xmlns:xlink="http://www.w3.org/1999/xlink" width="14px" height="14px" viewBox="0 0 14 14" version="1.1">
<g id="surface1">
<path style=" stroke:none;fill-rule:nonzero;fill: #15ba0c;fill-opacity:1;" d="M 2.84375 6.125 L 0.65625 6.125 C 0.292969 6.125 0 6.417969 0 6.78125 L 0 13.34375 C 0 13.707031 0.292969 14 0.65625 14 L 2.84375 14 C 3.207031 14 3.5 13.707031 3.5 13.34375 L 3.5 6.78125 C 3.5 6.417969 3.207031 6.125 2.84375 6.125 Z M 1.75 12.90625 C 1.386719 12.90625 1.09375 12.613281 1.09375 12.25 C 1.09375 11.886719 1.386719 11.59375 1.75 11.59375 C 2.113281 11.59375 2.40625 11.886719 2.40625 12.25 C 2.40625 12.613281 2.113281 12.90625 1.75 12.90625 Z M 10.5 2.226562 C 10.5 3.386719 9.789062 4.039062 9.589844 4.8125 L 12.371094 4.8125 C 13.285156 4.8125 13.996094 5.570312 14 6.402344 C 14.003906 6.890625 13.792969 7.417969 13.46875 7.746094 L 13.464844 7.75 C 13.734375 8.386719 13.691406 9.28125 13.210938 9.921875 C 13.449219 10.628906 13.210938 11.5 12.761719 11.964844 C 12.878906 12.449219 12.824219 12.855469 12.59375 13.1875 C 12.035156 13.988281 10.652344 14 9.484375 14 L 9.40625 14 C 8.085938 14 7.003906 13.519531 6.136719 13.132812 C 5.699219 12.9375 5.128906 12.699219 4.695312 12.691406 C 4.519531 12.6875 4.375 12.539062 4.375 12.363281 L 4.375 6.515625 C 4.375 6.429688 4.410156 6.34375 4.472656 6.285156 C 5.554688 5.214844 6.019531 4.082031 6.910156 3.191406 C 7.3125 2.785156 7.460938 2.171875 7.601562 1.582031 C 7.726562 1.074219 7.980469 0 8.53125 0 C 9.1875 0 10.5 0.21875 10.5 2.226562 Z M 10.5 2.226562 "/>
</g>
</svg>
